<?xml version="1.0" encoding="utf-8"?>
<!-- Generator: Adobe Illustrator 23.0.6, SVG Export Plug-In . SVG Version: 6.00 Build 0)  -->
<svg version="1.1" id="Capa_1" xmlns="http://www.w3.org/2000/svg" xmlns:xlink="http://www.w3.org/1999/xlink" x="0px" y="0px"
	 viewBox="0 0 394.4 352.2" style="enable-background:new 0 0 394.4 352.2;" xml:space="preserve">
<style type="text/css">
	.st0{fill:#00C9D8;stroke:#00C9D8;stroke-width:11;stroke-miterlimit:10;}
	.st1{fill:#006CD8;}
</style>
<path class="st0" d="M111.1,223.5c-4.9-5.9-6.5-13-8-20.3C92.9,151.5,82.5,99.8,72.2,48.1c77.7,0,155.5,0,233.2,0
	c22.5,0,45,0,67.5,0c9.2,0,12.3,4,10.1,12.7c-10.2,41-20.5,82.1-30.8,123.1c-1.6,6.3-3.4,7.8-10,8.7c-40.1,5.3-80.2,10.6-120.3,16
	c-29,3.9-57.9,7.8-86.8,11.7C127.2,221.3,119.1,222.4,111.1,223.5z"/>
<path class="st1" d="M111.1,223.5c7.1,10,16.9,15.3,28.9,16.5c2.4,0.2,4.7,0.2,7.1,0.2c58.7,0,117.5,0,176.2,0c1.1,0,2.2,0,3.4,0
	c5.7,0.1,9.3,3.3,9.2,8.1c0,4.8-3.7,8-9.4,8c-29.5,0-59,0-88.5,0c-31,0-62,0.1-93,0c-21-0.1-37.6-8.8-49.2-26.4
	c-5.7-8.7-7.5-18.6-9.5-28.6C74.3,140.7,62.2,80.1,50.2,19.5c-0.5-2.5-1.4-3.4-4.1-3.4c-11.4,0.2-22.7-0.1-34.1,0.2
	c-5,0.1-9.1-0.9-12-5.2c0-2,0-4,0-6C2.9,0.9,7-0.1,12,0c13.6,0.2,27.2,0.1,40.8,0.1c8,0,10.2,1.8,11.7,9.5
	c2.5,12.8,5.2,25.7,7.8,38.5c10.3,51.7,20.6,103.4,30.9,155.1C104.6,210.4,106.2,217.6,111.1,223.5z"/>
<path class="st1" d="M296.2,272.2c22,0.1,39.9,18.2,39.8,40.3c-0.1,21.9-18.1,39.8-40,39.8c-21.9,0-40.1-18.2-40.1-40.2
	C256,290,274.1,272.1,296.2,272.2z"/>
<path class="st1" d="M96,312.3c-0.1-22.1,17.9-40.1,39.9-40.1c22.1,0,40.1,18,40.1,40c0,21.8-17.9,39.8-39.8,40
	C114.3,352.4,96.1,334.3,96,312.3z"/>
</svg>
