<svg id="Capa_1" data-name="Capa 1" xmlns="http://www.w3.org/2000/svg" viewBox="0 0 1341.3 436.9"><defs><style>.cls-1{fill:#61dafb;}</style></defs><title>logoSport</title><path class="cls-1" d="M507,232.43c0-32.5-40.7-63.3-103.1-82.4,14.4-63.6,8-114.2-20.2-130.4a43.84,43.84,0,0,0-22.4-5.6v22.3a23.16,23.16,0,0,1,11.4,2.6c13.6,7.8,19.5,37.5,14.9,75.7-1.1,9.4-2.9,19.3-5.1,29.4a484.62,484.62,0,0,0-63.5-10.9,487.8,487.8,0,0,0-41.6-50c32.6-30.3,63.2-46.9,84-46.9V13.93c-27.5,0-63.5,19.6-99.9,53.6-36.4-33.8-72.4-53.2-99.9-53.2v22.3c20.7,0,51.4,16.5,84,46.6a472.31,472.31,0,0,0-41.3,49.9,467,467,0,0,0-63.6,11c-2.3-10-4-19.7-5.2-29-4.7-38.2,1.1-67.9,14.6-75.8,3-1.8,6.9-2.6,11.5-2.6V14.43A44.59,44.59,0,0,0,139,20c-28.1,16.2-34.4,66.7-19.9,130.1-62.2,19.2-102.7,49.9-102.7,82.3s40.7,63.3,103.1,82.4c-14.4,63.6-8,114.2,20.2,130.4,6.5,3.8,14.1,5.6,22.5,5.6,27.5,0,63.5-19.6,99.9-53.6,36.4,33.8,72.4,53.2,99.9,53.2a44.59,44.59,0,0,0,22.6-5.6c28.1-16.2,34.4-66.7,19.9-130.1,62-19.1,102.5-49.9,102.5-82.3Zm-130.2-66.7c-3.7,12.9-8.3,26.2-13.5,39.5-4.1-8-8.4-16-13.1-24s-9.5-15.8-14.4-23.4c14.2,2.1,27.9,4.7,41,7.9ZM331,272.23c-7.8,13.5-15.8,26.3-24.1,38.2-14.9,1.3-30,2-45.2,2s-30.2-.7-45-1.9q-12.45-17.85-24.2-38-11.4-19.65-20.8-39.8c6.2-13.4,13.2-26.8,20.7-39.9,7.8-13.5,15.8-26.3,24.1-38.2,14.9-1.3,30-2,45.2-2s30.2.7,45,1.9q12.45,17.85,24.2,38,11.4,19.65,20.8,39.8c-6.3,13.4-13.2,26.8-20.7,39.9Zm32.3-13c5.4,13.4,10,26.8,13.8,39.8-13.1,3.2-26.9,5.9-41.2,8,4.9-7.7,9.8-15.6,14.4-23.7s8.9-16.1,13-24.1Zm-101.4,106.7a412.27,412.27,0,0,1-27.8-32c9,.4,18.2.7,27.5.7s18.7-.2,27.8-.7A390.33,390.33,0,0,1,261.91,365.93ZM187.51,307c-14.2-2.1-27.9-4.7-41-7.9,3.7-12.9,8.3-26.2,13.5-39.5,4.1,8,8.4,16,13.1,24S182.61,299.43,187.51,307Zm73.9-208.1a412.27,412.27,0,0,1,27.8,32c-9-.4-18.2-.7-27.5-.7s-18.7.2-27.8.7A390.33,390.33,0,0,1,261.41,98.93Zm-74,58.9c-4.9,7.7-9.8,15.6-14.4,23.7s-8.9,16-13,24c-5.4-13.4-10-26.8-13.8-39.8,13.1-3.1,26.9-5.8,41.2-7.9ZM96.91,283c-35.4-15.1-58.3-34.9-58.3-50.6s22.9-35.6,58.3-50.6c8.6-3.7,18-7,27.7-10.1a480.28,480.28,0,0,0,22.5,60.9,473.51,473.51,0,0,0-22.2,60.6c-9.9-3.1-19.3-6.5-28-10.2Zm53.8,142.9c-13.6-7.8-19.5-37.5-14.9-75.7,1.1-9.4,2.9-19.3,5.1-29.4a484.62,484.62,0,0,0,63.5,10.9,487.8,487.8,0,0,0,41.6,50c-32.6,30.3-63.2,46.9-84,46.9a23.87,23.87,0,0,1-11.3-2.7Zm237.2-76.2c4.7,38.2-1.1,67.9-14.6,75.8-3,1.8-6.9,2.6-11.5,2.6-20.7,0-51.4-16.5-84-46.6a472.31,472.31,0,0,0,41.3-49.9,467,467,0,0,0,63.6-11A279.94,279.94,0,0,1,387.91,349.73Zm38.5-66.7c-8.6,3.7-18,7-27.7,10.1a480.28,480.28,0,0,0-22.5-60.9,473.51,473.51,0,0,0,22.2-60.6c9.9,3.1,19.3,6.5,28.1,10.2,35.4,15.1,58.3,34.9,58.3,50.6s-23,35.6-58.4,50.6Z" transform="translate(-16.41 -13.93)"/><circle class="cls-1" cx="245.2" cy="218.5" r="45.7"/><path class="cls-1" d="M361.21,14" transform="translate(-16.41 -13.93)"/><path class="cls-1" d="M627.67,136.1v78.1H581.84V58.89q0-6.68,6.23-6.67h126.6q15.14,0,25.59,3.56a41,41,0,0,1,16.91,10.35,40.22,40.22,0,0,1,9.35,16.35,74.79,74.79,0,0,1,2.89,21.58v11.57a71.67,71.67,0,0,1-2.89,21.14,39.14,39.14,0,0,1-9.24,15.91,41.6,41.6,0,0,1-16.35,10.12q-10,3.57-24.48,3.56H705.88c-1.7,0-3.37-.07-5-.22v1.56q2.88,2.67,5.78,5.9t5.57,6.56L738,212.42v1.78H686.41l-57.18-78.1Zm3.12-43.39c-2.08,0-3.12,1.27-3.12,3.79v35.38h78.77q9.12,0,13-3.56t3.89-13.58v-5.56q0-9.34-3.89-12.91t-13-3.56Z" transform="translate(-16.41 -13.93)"/><path class="cls-1" d="M824.59,144.56H823v18.91q0,10.47,3.56,14.35t13.35,3.9h87V214.2H832.38q-13.57,0-23-3.44a39.55,39.55,0,0,1-15.47-9.8,37.37,37.37,0,0,1-8.67-15.24,69.55,69.55,0,0,1-2.67-20V140.55a69.6,69.6,0,0,1,2.67-20,37.44,37.44,0,0,1,8.67-15.24,39.54,39.54,0,0,1,15.47-9.79q9.45-3.45,23-3.45h70.53q14,0,20,7.23t6,22.58v11.8q0,13.58-6,21.58t-20,8H831.49Zm-1.56-6h61.41q6.9,0,6.9-7.12V127c0-2.52-.55-4.3-1.67-5.34s-2.85-1.56-5.23-1.56h-44.5q-9.35,0-13.12,3.9T823,137.88Z" transform="translate(-16.41 -13.93)"/><path class="cls-1" d="M945.63,122.31V92.05h113.48q12,0,17.69,6.67t5.68,19.36v90.78q0,5.34-5.12,5.34H970.78a39.26,39.26,0,0,1-11.91-1.66,20.32,20.32,0,0,1-8.9-5.68,26.09,26.09,0,0,1-5.56-10.57,60,60,0,0,1-1.89-16.35v-9.13q0-17.35,7.45-24.8t20.81-7.46h62.08l7.56,18H1042V131.88c0-3.41-.71-5.86-2.11-7.35s-3.53-2.22-6.35-2.22Zm93.9,61.63c1.63,0,2.45-.89,2.45-2.67V162.58H989q-4,0-5.67,2t-1.67,6v5.34a9.31,9.31,0,0,0,1.67,5.9q1.67,2.11,5.67,2.11Z" transform="translate(-16.41 -13.93)"/><path class="cls-1" d="M1210.86,143.22h-2V126.54c0-1.63-.67-2.45-2-2.45h-49.4q-9.57,0-13.24,4.11t-3.67,15v17.14q0,10.45,3.67,14.24t13.24,3.78h87V214.2h-94.57q-13.58,0-23-3.44a39.59,39.59,0,0,1-15.46-9.8,37.39,37.39,0,0,1-8.68-15.24,69.55,69.55,0,0,1-2.67-20V140.55a70,70,0,0,1,2.67-19.91,37.36,37.36,0,0,1,8.68-15.35,39.57,39.57,0,0,1,15.46-9.79q9.47-3.45,23-3.45h90.56q6,0,6,6v31.6Z" transform="translate(-16.41 -13.93)"/><path class="cls-1" d="M1357.71,122.75h-35.6V214.2h-40.27V122.75h-16l-11.13-28.92V92.05h27.15V52.22h40.27V92.05h35.6Z" transform="translate(-16.41 -13.93)"/><path class="cls-1" d="M672.07,311.79h-1.15v-11.5a1.53,1.53,0,0,0-1.73-1.73H614c-2,0-3.4.43-4.17,1.3a5.44,5.44,0,0,0-1.15,3.74v2.58c0,2,.34,3.31,1,3.88a8.11,8.11,0,0,0,3.88,1.3l65,9.05a43.13,43.13,0,0,1,10.5,2.66,19.93,19.93,0,0,1,7,4.74,17,17,0,0,1,3.88,7.26,39.84,39.84,0,0,1,1.15,10.21v8.33A37.81,37.81,0,0,1,699.52,365a19.3,19.3,0,0,1-5.18,8.34,23,23,0,0,1-9.48,5.1,52.42,52.42,0,0,1-14.52,1.72H577.21V353h83.5c2.49,0,4.15-.46,5-1.37s1.22-2.51,1.22-4.81V344a5.93,5.93,0,0,0-.93-3.81c-.63-.72-1.85-1.17-3.67-1.36l-62.66-7.91a49,49,0,0,1-10.85-2.58,20.87,20.87,0,0,1-7.41-4.6,16.9,16.9,0,0,1-4.16-7.05,33.31,33.31,0,0,1-1.3-9.91v-7.33q0-11.35,6-17.61t20.12-6.25h93q4.46,0,4.46,4.6v21.56Z" transform="translate(-16.41 -13.93)"/><path class="cls-1" d="M740.62,360.08h-1v52.46H713.46V309.63q0-8.33,7.62-8.33h56.77a44.44,44.44,0,0,1,14.95,2.22,24.94,24.94,0,0,1,10,6.33,24.52,24.52,0,0,1,5.53,9.91,45.17,45.17,0,0,1,1.73,12.87v16.24a45,45,0,0,1-1.73,12.94A23.6,23.6,0,0,1,792.8,378a44.18,44.18,0,0,1-14.95,2.23H748.53ZM741.77,322c-1.53,0-2.29,1-2.29,2.88v32.19H773q6.18,0,8.63-2.44t2.44-9.2V334.35q0-7-2.44-9.7T773,322Z" transform="translate(-16.41 -13.93)"/><path class="cls-1" d="M923.3,348.87a45,45,0,0,1-1.72,12.94,24.15,24.15,0,0,1-5.61,9.84A25.37,25.37,0,0,1,905.91,378,44.12,44.12,0,0,1,891,380.2H853A43.49,43.49,0,0,1,838.15,378a25.38,25.38,0,0,1-10-6.32,24.15,24.15,0,0,1-5.61-9.84,45,45,0,0,1-1.72-12.94V332.63a45.18,45.18,0,0,1,1.72-12.87,24.09,24.09,0,0,1,5.61-9.91,25.51,25.51,0,0,1,10-6.33A43.75,43.75,0,0,1,853,301.3h38a44.38,44.38,0,0,1,14.94,2.22A25.5,25.5,0,0,1,916,309.85a24.09,24.09,0,0,1,5.61,9.91,45.18,45.18,0,0,1,1.72,12.87Zm-37.08,8.19q6.18,0,8.63-2.44c1.62-1.63,2.44-4.7,2.44-9.2V334.35q0-7.19-2.52-9.77T886.22,322H857.91q-6.18,0-8.55,2.66t-2.38,9.7v11.07q0,6.75,2.38,9.2t8.55,2.44Z" transform="translate(-16.41 -13.93)"/><path class="cls-1" d="M1001.64,334.35h-1.15V323.57c0-1.05-.48-1.58-1.44-1.58H967.29q-3.46,0-4.89,1.58T961,329V380.2h-26V323.43q0-10.06,5.25-16.1t16.75-6h64q3.74,0,3.73,3.88v20.4Z" transform="translate(-16.41 -13.93)"/><path class="cls-1" d="M1096.5,321.13h-23V380.2h-26V321.13h-10.34L1030,302.45V301.3h17.53V275.57h26V301.3h23Z" transform="translate(-16.41 -13.93)"/><path class="cls-1" d="M1104.83,358.07h64.54a4.2,4.2,0,0,0,3.16-.94,4.51,4.51,0,0,0,.86-3.09v-1.72a4.06,4.06,0,0,0-.57-2.37,3.06,3.06,0,0,0-2.3-.94l-49-4.16q-9-.72-13.36-5.61t-4.32-13.08v-6.32q0-8.62,4.75-13.59t15.52-4.95h71.15c2.39,0,3.59,1.19,3.59,3.59v17.68l-22.42,8.33h-1v-9c0-.77-.33-1.15-1-1.15h-41.11a4.24,4.24,0,0,0-3,.86,4,4,0,0,0-.86,2.88v2.15c0,1.34.21,2.21.65,2.59a4.91,4.91,0,0,0,2.37.86l50.16,4.89a26.8,26.8,0,0,1,8.33,1.87,14.27,14.27,0,0,1,5.32,3.8,13.63,13.63,0,0,1,2.81,5.83,36.71,36.71,0,0,1,.79,8v5.9q0,9.48-5,14.66t-17.61,5.17h-72.44Z" transform="translate(-16.41 -13.93)"/></svg>